#N canvas 827 239 527 327 12;
#X obj 12 888 throw~ looper-master-in;
#X obj 12 751 adc~;
#X obj 77 827 hsl 128 17 0 1 0 0 empty master-in-vol empty -2 -8 0 10 #000000 #ffffff #ffffff 0 1;
#X obj 12 827 *~;
#X obj 944 155 s 1-playback-dur;
#X obj 937 299 s 1-playback-speed;
#X obj 1125 155 s 2-playback-dur;
#X obj 1118 299 s 2-playback-speed;
#X obj 1306 155 s 3-playback-dur;
#X obj 1299 299 s 3-playback-speed;
#X obj 1487 155 s 4-playback-dur;
#X obj 1480 299 s 4-playback-speed;
#N canvas 0 50 450 300 enable 1;
#X obj 4 16 tgl 79 0 empty empty empty 17 7 0 10 #000000 #ffffff #ffffff 0 1;
#X obj 4 112 s \$0-enable;
#X obj 143 16 r \$0-enable;
#X obj 143 42 sel 1;
#X obj 143 103 s vols;
#X obj 143 68 f 0.75;
#X obj 204 68 f 0;
#X connect 0 0 1 0;
#X connect 2 0 3 0;
#X connect 3 0 5 0;
#X connect 3 1 6 0;
#X connect 5 0 4 0;
#X connect 6 0 4 0;
#X coords 0 0 1 1 90 100 1 0 0;
#X restore 795 10 pd enable;
#X obj 12 668 r~ looper-master-out;
#X obj 12 718 dac~;
#X obj 795 128 vsl 17 128 0 1 0 0 master-in-vol empty empty 0 -9 0 10 #000000 #ffffff #ffffff 0 1;
#X obj 795 273 vsl 17 128 0 1 0 0 feedforward empty empty 0 -9 0 10 #000000 #ffffff #ffffff 0 1;
#X text 821 264 feedforward;
#X text 821 119 master in;
#X obj 795 474 bng 25 250 50 0 looper-rec-start empty empty 17 7 0 10 #000000 #ffffff #ffffff;
#X text 795 504 start rec;
#X obj 885 474 bng 25 250 50 0 looper-rec-stop empty empty 17 7 0 10 #000000 #ffffff #ffffff;
#X text 885 504 stop rec;
#X obj 12 10 looper-manager-no-transient;
#X obj 937 269 param speed-1;
#X obj 944 121 param dur-1;
#X obj 1118 269 param speed-2;
#X obj 1125 121 param dur-2;
#X obj 1299 269 param speed-3;
#X obj 1306 121 param dur-3;
#X obj 1480 269 param speed-4;
#X obj 1487 121 param dur-4;
#X obj 795 415 param rec;
#X obj 795 442 sel 1 0;
#X obj 947 93 hsl 128 17 0 1 0 0 empty empty empty -2 -8 0 10 #000000 #ffffff #ffffff 0 1;
#X obj 1131 93 hsl 128 17 0 1 0 0 empty empty empty -2 -8 0 10 #000000 #ffffff #ffffff 0 1;
#X obj 1312 93 hsl 128 17 0 1 0 0 empty empty empty -2 -8 0 10 #000000 #ffffff #ffffff 0 1;
#X obj 1493 93 hsl 128 17 0 1 0 0 empty empty empty -2 -8 0 10 #000000 #ffffff #ffffff 0 1;
#X obj 940 236 hsl 128 17 0 2 0 0 empty empty empty -2 -8 0 10 #000000 #ffffff #ffffff 0 1;
#X obj 1121 236 hsl 128 17 0 2 0 0 empty empty empty -2 -8 0 10 #000000 #ffffff #ffffff 0 1;
#X obj 1302 236 hsl 128 17 0 2 0 0 empty empty empty -2 -8 0 10 #000000 #ffffff #ffffff 0 1;
#X obj 1483 236 hsl 128 17 0 2 0 0 empty empty empty -2 -8 0 10 #000000 #ffffff #ffffff 0 1;
#X connect 1 0 3 0;
#X connect 1 1 3 0;
#X connect 2 0 3 1;
#X connect 3 0 0 0;
#X connect 13 0 14 0;
#X connect 13 0 14 1;
#X connect 24 0 5 0;
#X connect 25 0 4 0;
#X connect 26 0 7 0;
#X connect 27 0 6 0;
#X connect 28 0 9 0;
#X connect 29 0 8 0;
#X connect 30 0 11 0;
#X connect 31 0 10 0;
#X connect 32 0 33 0;
#X connect 33 0 19 0;
#X connect 33 1 21 0;
#X connect 34 0 4 0;
#X connect 35 0 6 0;
#X connect 36 0 8 0;
#X connect 37 0 10 0;
#X connect 38 0 5 0;
#X connect 39 0 7 0;
#X connect 40 0 9 0;
#X connect 41 0 11 0;
