#N canvas 827 239 527 327 12;
#X obj 16 16 looper-manager;
#X text 31 1062 cueing system to cue between gestures and between movements, f 76;
#X text 31 1093 cue 1: activated by beginning percussive sound -- all buffers are filled and parameters are randomized, f 97;
#X text 53 1164 subsequent sounds fill buffers one-by-one with stutter gates;
#X text 53 1120 buffer durations increase and speeds gradually converge to form uniform sound;
#X text 31 1198 cue 2: buffer lengths gradually increase to create wash of tones;
#X text 53 1224 multiphonics are introduced -- these trigger the buffers to spread out across spectrum;
#X text 18 1389 percussive sounds phase \, creating dense clicky texture -> lengths gradually lengthen to form whole sounds and lower tones are introduced to form muddy low-end. -> Low tones are shifted throughout spectrum to combine with percussive sounds and replace them \, gradually forming a wash of tones. Multiphonics are introducedand and, f 101;
#X text 758 1116 8 buffers \, each on their own channel;
#X text 758 1138 each buffer has paramters: duration \, speed/pitch \, phase;
#X text 758 1161 each channel: buffer -> delay -> distortion -> bussed into master reverb;
#X text 758 1069 buffers begin recording on transient \, stop recording until next transient or timeout. Record cyclically.;
#X obj 66 765 s looper-rec-start;
#X obj 239 765 s looper-rec-stop;
#X obj 66 735 bng 25 250 50 0 empty empty empty 17 7 0 10 #000000 #ffffff #ffffff;
#X obj 239 735 bng 25 250 50 0 empty empty empty 17 7 0 10 #000000 #ffffff #ffffff;
#X obj 492 740 hsl 128 17 0 1 0 0 empty empty empty -2 -8 0 10 #000000 #ffffff #ffffff 0 1;
#X obj 492 820 hsl 128 17 -1 2 0 0 empty empty empty -2 -8 0 10 #000000 #ffffff #ffffff 0 1;
#X obj 486 779 s 1-playback-dur;
#X obj 486 860 s 1-playback-speed;
#X obj 673 740 hsl 128 17 0 1 0 0 empty empty empty -2 -8 0 10 #000000 #ffffff #ffffff 0 1;
#X obj 673 820 hsl 128 17 -1 2 0 0 empty empty empty -2 -8 0 10 #000000 #ffffff #ffffff 0 1;
#X obj 667 779 s 2-playback-dur;
#X obj 667 860 s 2-playback-speed;
#X obj 854 740 hsl 128 17 0 1 0 0 empty empty empty -2 -8 0 10 #000000 #ffffff #ffffff 0 1;
#X obj 854 820 hsl 128 17 -1 2 0 0 empty empty empty -2 -8 0 10 #000000 #ffffff #ffffff 0 1;
#X obj 1035 740 hsl 128 17 0 1 0 0 empty empty empty -2 -8 0 10 #000000 #ffffff #ffffff 0 1;
#X obj 1035 820 hsl 128 17 -1 2 0 0 empty empty empty -2 -8 0 10 #000000 #ffffff #ffffff 0 1;
#X obj 848 779 s 3-playback-dur;
#X obj 848 860 s 3-playback-speed;
#X obj 1029 779 s 4-playback-dur;
#X obj 1029 860 s 4-playback-speed;
#N canvas 0 50 450 300 enable 1;
#X obj 4 16 tgl 79 0 empty empty empty 17 7 0 10 #000000 #ffffff #ffffff 0 1;
#X obj 4 112 s \$0-enable;
#X obj 143 16 r \$0-enable;
#X obj 143 42 sel 1;
#X obj 143 103 s vols;
#X obj 143 68 f 0.75;
#X obj 204 68 f 0;
#X connect 0 0 1 0;
#X connect 2 0 3 0;
#X connect 3 0 5 0;
#X connect 3 1 6 0;
#X connect 5 0 4 0;
#X connect 6 0 4 0;
#X coords 0 0 1 1 90 100 1 0 0;
#X restore 795 16 pd enable;
#X obj 890 16 imu;
#X text 823 299 loopers record audio + control signals;
#X text 823 323 so each looper would have to have 7 arrays?;
#X connect 14 0 12 0;
#X connect 15 0 13 0;
#X connect 16 0 18 0;
#X connect 17 0 19 0;
#X connect 20 0 22 0;
#X connect 21 0 23 0;
#X connect 24 0 28 0;
#X connect 25 0 29 0;
#X connect 26 0 30 0;
#X connect 27 0 31 0;
