#N canvas 61 186 820 535 12;
#X obj 424 128 netreceive -u -b;
#X msg 424 100 listen 12000;
#X obj 424 155 oscparse;
#X obj 424 179 list trim;
#X obj 424 203 route esp;
#X obj 424 253 route accel;
#X obj 674 253 route gyro;
#X obj 424 294 route x;
#X obj 502 294 route y;
#X obj 581 294 route z;
#X obj 674 294 route x;
#X obj 754 294 route y;
#X obj 835 294 route z;
#X obj 424 53 loadbang;
#X obj 424 331 s accel-x;
#X obj 502 363 s accel-y;
#X obj 581 390 s accel-z;
#X obj 674 331 s gyro-x;
#X obj 754 363 s gyro-y;
#X obj 835 390 s gyro-z;
#X text 193 127 connected;
#X obj 193 155 tgl 39 0 empty \$0-connected empty 17 7 0 10 #000000 #ffffff #ffffff 0 1;
#X obj 6 53 tgl 52 0 \$0-on empty empty 17 7 0 10 #000000 #ffffff #ffffff 0 1;
#X text 6 23 on/off;
#X obj 100 53 bng 52 250 50 0 \$0-calibrate empty empty 17 7 0 10 #000000 #ffffff #ffffff;
#X text 100 23 calibrate;
#X obj 54 283 r \$0-on;
#X obj 54 309 tgl 25 0 empty empty empty 17 7 0 10 #000000 #ffffff #ffffff 0 1;
#X obj 54 341 route 1;
#X obj 54 367 bng 25 250 50 0 empty empty empty 17 7 0 10 #000000 #ffffff #ffffff;
#X obj 54 716 netsend -u -b;
#X msg 54 519 connect 192.168.4.1 10000;
#X obj 206 633 int 1;
#X msg 78 552 set esp start;
#X msg 466 626 set esp calibrate;
#X msg 267 552 set esp stop;
#X obj 78 676 oscformat esp start;
#X obj 54 759 tgl 25 0 \$0-connected empty empty 17 7 0 10 #000000 #ffffff #ffffff 0 1;
#X obj 54 399 t b b b;
#X obj 164 367 bng 25 250 50 0 empty empty empty 17 7 0 10 #000000 #ffffff #ffffff;
#X obj 466 489 r \$0-calibrate;
#X obj 466 515 t b b;
#X floatatom 6 155 5 0 0 0 - accel-x - 12;
#X floatatom 6 179 5 0 0 0 - accel-y - 12;
#X floatatom 6 203 5 0 0 0 - accel-z - 12;
#X text 46 154 x;
#X text 46 178 y;
#X text 46 202 z;
#X text 7 127 acceleration;
#X text 115 127 gyro;
#X floatatom 115 155 5 0 0 0 - gyro-x - 12;
#X floatatom 115 179 5 0 0 0 - gyro-y - 12;
#X floatatom 115 203 5 0 0 0 - gyro-z - 12;
#X text 155 154 x;
#X text 155 178 y;
#X text 155 202 z;
#X obj 164 399 t b b b;
#X msg 267 519 disconnect;
#X connect 0 0 2 0;
#X connect 1 0 0 0;
#X connect 2 0 3 0;
#X connect 3 0 4 0;
#X connect 4 0 5 0;
#X connect 4 0 6 0;
#X connect 5 0 7 0;
#X connect 5 0 8 0;
#X connect 5 0 9 0;
#X connect 6 0 10 0;
#X connect 6 0 11 0;
#X connect 6 0 12 0;
#X connect 7 0 14 0;
#X connect 8 0 15 0;
#X connect 9 0 16 0;
#X connect 10 0 17 0;
#X connect 11 0 18 0;
#X connect 12 0 19 0;
#X connect 13 0 1 0;
#X connect 26 0 27 0;
#X connect 27 0 28 0;
#X connect 28 0 29 0;
#X connect 28 1 39 0;
#X connect 29 0 38 0;
#X connect 30 0 37 0;
#X connect 31 0 30 0;
#X connect 32 0 36 0;
#X connect 33 0 36 0;
#X connect 34 0 36 0;
#X connect 35 0 36 0;
#X connect 36 0 30 0;
#X connect 38 0 32 0;
#X connect 38 1 33 0;
#X connect 38 2 31 0;
#X connect 39 0 56 0;
#X connect 40 0 41 0;
#X connect 41 0 32 0;
#X connect 41 1 34 0;
#X connect 56 0 57 0;
#X connect 56 1 32 0;
#X connect 56 2 35 0;
#X connect 57 0 30 0;
#X coords 0 0 1 1 285 235 1 0 0;
