#N canvas 827 239 527 327 12;
#X obj 39 693 catch~ looper-master-in;
#X obj 3 72 transient_looper 1;
#X floatatom 145 40 8 0 0 0 - looper-pos - 16;
#X text 145 11 recording into;
#X obj 96 40 bng 25 250 50 0 step-pos empty empty 17 7 0 10 #000000 #ffffff #ffffff;
#X text 96 11 step;
#X obj 61 40 bng 25 250 50 0 back-pos empty empty 17 7 0 10 #000000 #ffffff #ffffff;
#X text 61 11 prev;
#X obj 894 136 bng 25 250 50 0 empty empty empty 17 7 0 10 #191919 #ffffff #ffffff;
#X obj 1025 174 int;
#X obj 995 129 bng 25 250 50 0 empty empty empty 17 7 0 10 #191919 #ffffff #ffffff;
#X obj 1025 201 + 1;
#X obj 1169 174 int;
#X obj 1146 129 bng 25 250 50 0 empty empty empty 17 7 0 10 #191919 #ffffff #ffffff;
#X obj 1169 198 - 1;
#X text 894 43 init cue;
#X text 995 43 step cue;
#X text 1146 43 previous cue;
#X obj 805 86 loadbang;
#X obj 995 86 r step-pos;
#X obj 1146 86 r back-pos;
#X obj 3 40 bng 25 250 50 0 init-pos empty empty 17 7 0 10 #000000 #ffffff #ffffff;
#X text 3 11 init;
#X obj 894 86 r init-pos;
#X obj 894 208 s looper-pos;
#X obj 1036 135 r looper-pos;
#X obj 1180 135 r looper-pos;
#X obj 1025 381 s looper-pos;
#X obj 1169 230 s looper-pos;
#X obj 1025 295 sel 1;
#X obj 1025 230 t f f;
#X obj 1025 321 bng 25 250 50 0 empty empty empty 17 7 0 10 #000000 #ffffff #ffffff;
#X obj 54 731 s~ \$0-audio-in;
#X obj 997 888 r~ \$0-audio-in;
#X obj 1032 966 throw~ looper-1-send;
#X obj 1032 1005 throw~ looper-2-send;
#X obj 1032 1042 throw~ looper-3-send;
#X obj 1032 1079 throw~ looper-3-send;
#X obj 1025 269 expr (($f1 > 4) || ($f1 < 0));
#X obj 288 1078 env~;
#X floatatom 288 1105 5 0 0 0 - - - 12;
#X obj 288 1192 bng 25 250 50 0 empty empty empty 17 7 0 10 #000000 #ffffff #ffffff;
#X obj 288 1227 s looper-rec-stop;
#X obj 288 1138 expr ($f1 < $f2);
#X obj 288 1164 sel 1;
#X obj 409 1086 hsl 128 17 0 100 0 0 empty empty empty -2 -8 0 10 #000000 #ffffff #ffffff 0 1;
#X floatatom 406 1110 5 0 0 0 - - - 12;
#X obj 894 175 int 1;
#X obj 259 37 bng 25 250 50 0 empty empty empty 17 7 0 10 #000000 #ffffff #ffffff;
#X text 259 11 transient trigger;
#X obj 259 -58 r looper-rec-start;
#X text 288 1258 stop recording when rms goes under threshold or on next trigger;
#X obj 214 985 s looper-rec-start;
#X obj 387 985 s looper-rec-stop;
#X obj 214 951 bng 25 250 50 0 empty empty empty 17 7 0 10 #000000 #ffffff #ffffff;
#X obj 387 951 bng 25 250 50 0 empty empty empty 17 7 0 10 #000000 #ffffff #ffffff;
#X obj 791 888 r~ looper-1-out;
#X obj 807 914 r~ looper-2-out;
#X obj 824 940 r~ looper-3-out;
#X obj 837 967 r~ looper-4-out;
#X obj 384 72 transient_looper 2;
#X obj 3 354 transient_looper 3;
#X obj 1025 354 int 1;
#X obj 384 354 transient_looper 4;
#X obj 295 37 tgl 25 0 trans_trigger_enable empty empty 17 7 0 10 #000000 #ffffff #ffffff 0 1;
#X obj 1386 86 r vols;
#X obj 1386 168 s 1-vol;
#X obj 1396 178 s 2-vol;
#X obj 1406 188 s 3-vol;
#X obj 1416 198 s 4-vol;
#X obj 997 1186 *~;
#X obj 1020 1147 r feedforward;
#X obj 800 1200 s~ looper-master-out;
#X connect 0 0 32 0;
#X connect 8 0 47 0;
#X connect 9 0 11 0;
#X connect 10 0 9 0;
#X connect 11 0 30 0;
#X connect 12 0 14 0;
#X connect 13 0 12 0;
#X connect 14 0 28 0;
#X connect 18 0 8 0;
#X connect 19 0 10 0;
#X connect 20 0 13 0;
#X connect 23 0 8 0;
#X connect 25 0 9 1;
#X connect 26 0 12 1;
#X connect 29 0 31 0;
#X connect 30 0 38 0;
#X connect 30 1 27 0;
#X connect 31 0 62 0;
#X connect 33 0 34 0;
#X connect 33 0 35 0;
#X connect 33 0 36 0;
#X connect 33 0 37 0;
#X connect 33 0 70 0;
#X connect 38 0 29 0;
#X connect 39 0 40 0;
#X connect 40 0 43 0;
#X connect 41 0 42 0;
#X connect 43 0 44 0;
#X connect 44 0 41 0;
#X connect 45 0 46 0;
#X connect 46 0 43 1;
#X connect 47 0 24 0;
#X connect 50 0 48 0;
#X connect 54 0 52 0;
#X connect 55 0 53 0;
#X connect 56 0 72 0;
#X connect 57 0 72 0;
#X connect 58 0 72 0;
#X connect 59 0 72 0;
#X connect 62 0 27 0;
#X connect 65 0 66 0;
#X connect 65 0 67 0;
#X connect 65 0 68 0;
#X connect 65 0 69 0;
#X connect 70 0 72 0;
#X connect 71 0 70 1;
#X coords 0 0 1 1 771 647 1 0 0;
