#N canvas 61 186 820 535 12;
#X obj 196 161 netreceive -u -b;
#X msg 190 118 listen 12000;
#X obj 197 204 oscparse;
#X obj 197 228 list trim;
#X obj 197 252 route esp;
#X obj 72 318 route accel;
#X obj 273 314 route gyro;
#X obj 44 376 route x;
#X obj 102 374 route y;
#X obj 164 377 route z;
#X floatatom 44 400 5 0 0 0 - - - 0;
#X floatatom 102 398 5 0 0 0 - - - 0;
#X floatatom 164 401 5 0 0 0 - - - 0;
#X obj 271 377 route x;
#X obj 329 375 route y;
#X obj 391 378 route z;
#X floatatom 271 401 5 0 0 0 - - - 0;
#X floatatom 329 399 5 0 0 0 - - - 0;
#X floatatom 391 402 5 0 0 0 - - - 0;
#X connect 0 0 2 0;
#X connect 1 0 0 0;
#X connect 2 0 3 0;
#X connect 3 0 4 0;
#X connect 4 0 5 0;
#X connect 4 0 6 0;
#X connect 5 0 7 0;
#X connect 5 0 8 0;
#X connect 5 0 9 0;
#X connect 6 0 13 0;
#X connect 6 0 14 0;
#X connect 6 0 15 0;
#X connect 7 0 10 0;
#X connect 8 0 11 0;
#X connect 9 0 12 0;
#X connect 13 0 16 0;
#X connect 14 0 17 0;
#X connect 15 0 18 0;
