#N canvas 61 186 820 535 12;
#X obj 196 144 netreceive -u -b;
#X msg 196 85 listen 12000;
#X obj 196 171 oscparse;
#X obj 196 195 list trim;
#X obj 196 219 route esp;
#X obj 196 269 route accel;
#X obj 446 269 route gyro;
#X obj 196 310 route x;
#X obj 274 310 route y;
#X obj 353 310 route z;
#X obj 446 310 route x;
#X obj 526 310 route y;
#X obj 607 310 route z;
#X obj 196 419 bng 25 250 50 0 empty empty empty 17 7 0 10 #000000 #ffffff #ffffff;
#X obj 274 419 bng 25 250 50 0 empty empty empty 17 7 0 10 #000000 #ffffff #ffffff;
#X obj 353 419 bng 25 250 50 0 empty empty empty 17 7 0 10 #000000 #ffffff #ffffff;
#X obj 446 419 bng 25 250 50 0 empty empty empty 17 7 0 10 #000000 #ffffff #ffffff;
#X obj 526 419 bng 25 250 50 0 empty empty empty 17 7 0 10 #000000 #ffffff #ffffff;
#X obj 607 419 bng 25 250 50 0 empty empty empty 17 7 0 10 #000000 #ffffff #ffffff;
#X obj 899 310 netsend -u -b;
#X msg 687 108 disconnect;
#X msg 687 32 connect 192.168.4.1 10000;
#X text 1042 52 /esp/calibrate should tell it to calibrate;
#X obj 899 269 oscformat esp calibrate;
#X obj 899 186 int 1;
#X obj 967 186 int 0;
#X msg 687 74 connect localhost 12000;
#X obj 699 269 route calibrate;
#X floatatom 699 310 5 0 0 0 - - - 12;
#X obj 899 138 bng 25 250 50 0 empty empty empty 17 7 0 10 #000000 #ffffff #ffffff;
#X obj 967 138 bng 25 250 50 0 empty empty empty 17 7 0 10 #000000 #ffffff #ffffff;
#X connect 0 0 2 0;
#X connect 1 0 0 0;
#X connect 2 0 3 0;
#X connect 3 0 4 0;
#X connect 4 0 5 0;
#X connect 4 0 6 0;
#X connect 4 0 27 0;
#X connect 5 0 7 0;
#X connect 5 0 8 0;
#X connect 5 0 9 0;
#X connect 6 0 10 0;
#X connect 6 0 11 0;
#X connect 6 0 12 0;
#X connect 7 0 13 0;
#X connect 8 0 14 0;
#X connect 9 0 15 0;
#X connect 10 0 16 0;
#X connect 11 0 17 0;
#X connect 12 0 18 0;
#X connect 20 0 19 0;
#X connect 21 0 19 0;
#X connect 23 0 19 0;
#X connect 24 0 23 0;
#X connect 25 0 23 0;
#X connect 26 0 19 0;
#X connect 27 0 28 0;
#X connect 29 0 24 0;
#X connect 30 0 25 0;
